<?xml version="1.0" encoding="iso-8859-1"?>
<!-- Generator: Adobe Illustrator 19.0.0, SVG Export Plug-In . SVG Version: 6.00 Build 0)  -->
<svg version="1.1" id="Capa_1" xmlns="http://www.w3.org/2000/svg" xmlns:xlink="http://www.w3.org/1999/xlink" x="0px" y="0px"
	 viewBox="0 0 429.901 429.901" style="enable-background:new 0 0 429.901 429.901;" xml:space="preserve">
<g>
	<path style="fill:#5E9641;" d="M88.88,321.471c-46.08-6.8-80.8-63.28-80.8-131.28c0-72.8,40-132,90-132
		c11.241,0.092,22.266,3.097,32,8.72l6.96,3.92l-3.92,6.96c-13.744,25.526-20.765,54.131-20.4,83.12
		c0,46.96,17.52,90.8,45.68,114.48l5.68,4.8l-4.32,6c-11.906,18.468-30.884,31.226-52.48,35.28l-9.2,1.36L88.88,321.471z"/>
	<path style="fill:#5E9641;" d="M224,292.911l19.2-14.4c30.48-22.88,49.44-67.92,49.44-117.6c0.124-18.514-2.573-36.939-8-54.64
		l-1.28-4l34.08-44.08l69.76,90.24h-42.32l66.4,75.52h-51.76l62.4,68.96L224,292.911z"/>
</g>
<path style="fill:#94C83D;" d="M193.52,292.191c-46.08-6.8-80.8-63.2-80.8-131.28c0-72.8,40-132,90-132s90,59.2,90,132
	c0,68.08-34.72,124.48-80.8,131.28l-9.2,1.36L193.52,292.191z"/>
<path style="fill:#022400;" d="M377.52,231.871h33.68c4.418-0.006,7.995-3.592,7.99-8.01c-0.002-1.94-0.71-3.813-1.99-5.27
	l-54.72-62.24h24.48c4.418-0.011,7.991-3.601,7.981-8.019c-0.004-1.759-0.588-3.467-1.661-4.861l-69.68-90.16
	c-2.709-3.49-7.734-4.124-11.225-1.415c-0.529,0.411-1.005,0.886-1.415,1.415l-25.52,33.04c-17.36-39.2-48-65.44-82.8-65.44
	c-26.4,0-50.4,15.12-68.08,39.52c-11.079-6.548-23.691-10.053-36.56-10.16c-54,0-98,62.8-98,140c0,73.36,40,133.6,90,139.44v63.28
	H42.8c-4.418,0-8,3.582-8,8s3.582,8,8,8h320.64c4.418,0,8-3.582,8-8s-3.582-8-8-8h-38.16v-92.08h96.64
	c4.418-0.01,7.992-3.601,7.981-8.019c-0.005-1.974-0.739-3.876-2.061-5.341L377.52,231.871z M98,262.111c-4.418,0-8,3.582-8,8v43.44
	c-41.44-6.08-74-59.12-74-123.36c0-68.4,36.8-124,82-124c9.868,0.199,19.516,2.956,28,8c-14.354,26.745-21.703,56.689-21.36,87.04
	c0,51.36,19.52,96,48.48,120.64c-10.695,16.637-27.712,28.193-47.12,32v-43.76C106,265.692,102.418,262.111,98,262.111L98,262.111z
	 M194.64,392.911H106v-63.28c24.634-3.91,46.477-18.027,60.16-38.88c8.739,5.11,18.431,8.377,28.48,9.6V392.911z M202.64,234.511
	c-4.418,0-8,3.582-8,8v41.76c-41.44-6.08-74-59.12-74-123.36c0-68.4,36.8-124,82-124s82,56,82,124c0,64-32.56,117.28-74,123.36
	v-41.76C210.64,238.092,207.058,234.511,202.64,234.511L202.64,234.511z M309.28,392.911h-98.64v-92.56h2v0.72h96.64V392.911z
	 M325.28,284.911v-45.44c0-4.418-3.582-8-8-8s-8,3.582-8,8v45.44H248c30.96-23.44,52.64-70,52.64-124
	c0.054-19.337-2.833-38.57-8.56-57.04l25.2-32.96l53.44,69.12h-25.84c-4.418,0.006-7.995,3.592-7.99,8.01
	c0.002,1.94,0.71,3.813,1.99,5.27l54.72,62.24h-34.08c-4.418,0.01-7.992,3.601-7.981,8.019c0.005,1.974,0.739,3.876,2.061,5.341
	l50.32,56L325.28,284.911z"/>
<g>
</g>
<g>
</g>
<g>
</g>
<g>
</g>
<g>
</g>
<g>
</g>
<g>
</g>
<g>
</g>
<g>
</g>
<g>
</g>
<g>
</g>
<g>
</g>
<g>
</g>
<g>
</g>
<g>
</g>
</svg>
